<?xml version="1.0" encoding="utf-8"?>
<svg xmlns="http://www.w3.org/2000/svg" viewBox="0 0 500 500" xmlns:bx="https://boxy-svg.com" width="500px" height="500px"><defs><path id="path-0" style="fill: none;" d="M 283.452 198.442 C 283.452 194.749 282.82 192.584 282.82 190.237 C 282.82 187.397 282.82 185.188 282.82 182.979 C 282.82 180.667 282.505 179.023 282.505 176.983 C 282.505 175.447 282.189 174.235 282.189 172.88 C 282.205 172.565 283.213 168.94 283.452 168.462 C 284.738 165.575 284.11 161.78 285.345 159.31 C 286.822 155.195 287.633 151.5 288.816 147.95 C 289.702 143.774 290.616 140.213 291.341 136.589 C 292.737 132.401 294.385 130.705 296.706 128.384 C 300.147 125.96 303.365 123.949 306.489 122.388 C 307.745 122.072 310.591 120.004 310.591 119.863 C 312.642 119.863 314.242 120.179 315.956 120.179 C 318.208 120.179 319.878 119.863 321.321 119.863 C 322.328 119.863 323.876 118.916 324.793 118.916 C 326.502 117.838 328.518 117.685 329.842 117.023 C 331.815 116.351 333.799 115.445 335.207 115.445 C 337.161 115.445 338.463 115.129 339.625 115.129 C 341.413 115.129 342.886 115.129 344.358 115.129 C 346.462 115.129 347.935 115.129 349.408 115.129 C 352.238 115.129 354.55 114.814 356.666 114.814 C 359.441 114.814 362.266 115.012 363.924 114.183 C 365.449 114.183 366.895 113.551 368.027 113.551 C 370.026 113.551 371.393 113.551 372.761 113.551 C 375.075 113.551 377.073 113.551 379.072 113.551 C 383.035 113.551 385.938 114.183 388.855 114.183 C 393.938 114.183 397.708 115.76 401.478 115.76 C 403.731 115.76 409.699 116.092 410.63 117.023 C 411.846 117.923 413.246 118.377 414.417 119.547 C 415.963 121.093 415.791 121.868 416.942 123.019 C 418.64 126.101 420.596 128.118 421.991 130.908 C 423.772 133.005 424.516 135.395 424.516 136.904 C 424.516 138.587 424.516 139.955 424.516 141.322 C 424.2 142.336 423.999 145.626 423.569 146.056 C 423.569 147.714 423.002 151.356 422.307 152.052 L 422.307 152.368 C 422.307 152.516 421.991 152.534 421.991 152.683"/><bx:export><bx:file format="svg"/></bx:export></defs><ellipse style="stroke: rgb(0, 0, 0); fill: rgb(29, 104, 167); stroke-width: 0px;" cx="249.295" cy="250.77" rx="249.23" ry="249.23"/><rect x="139.186" y="285.235" width="14.472" height="11.407" style="stroke: rgb(0, 0, 0); stroke-width: 0px; fill: rgb(81, 140, 187);"/><path style="stroke: rgb(0, 0, 0); stroke-width: 0px; fill: rgb(81, 140, 187);" d="M 129.63 307.368 L 130.141 282.682 L 140.356 285.576 L 139.675 311.114 L 129.63 307.368 Z"/><ellipse style="stroke-width: 0; stroke: rgb(29, 104, 167); fill: rgb(129, 176, 214); transform-origin: 278.064px 217.303px;" cx="278.064" cy="217.303" rx="62.875" ry="110.336" transform="matrix(0.978148, 0.207912, -0.207912, 0.978148, -134.078367, -41.712219)"><title>outer light blue</title></ellipse><ellipse style="stroke-width: 0; stroke: rgb(29, 104, 167); fill: rgb(255, 255, 255); transform-origin: 278.064px 217.303px;" cx="278.064" cy="217.303" rx="61.378" ry="109.854" transform="matrix(0.978148, 0.207912, -0.207912, 0.978148, -117.747877, -39.037338)"><title>white</title></ellipse><ellipse style="stroke-width: 0; stroke: rgb(29, 104, 167); fill: rgb(91, 150, 195); transform-origin: 278.064px 217.303px;" cx="278.064" cy="217.303" rx="40.353" ry="77.548" transform="matrix(0.978148, 0.207912, -0.207912, 0.978148, -116.072474, -37.061462)"><title>inner light blue</title></ellipse><ellipse style="stroke-width: 0px; stroke: rgb(29, 104, 167); fill: rgb(29, 104, 167); transform-box: fill-box; transform-origin: 50% 50%;" cx="278.064" cy="217.303" rx="30.895" ry="78.081" transform="matrix(0.978148, 0.207912, -0.207912, 0.978148, -125.497592, -39.274286)"><title>inner blue</title></ellipse><path style="fill: rgb(255, 255, 255); stroke: rgb(255, 255, 255); stroke-width: 3.5; stroke-linejoin: round; stroke-linecap: round;" transform="matrix(2.838573, 0, 0, 2.441338, -560.347473, -262.615021)" d="M320.53 248.36Q315.29 248.36 310.17 247.05Q305.06 245.74 301.06 243.81Q297.07 241.88 295.07 239.88L301.69 228.02Q303.06 229.15 305.99 230.96Q308.93 232.76 312.79 234.14Q316.66 235.51 320.53 235.51Q326.9 235.51 331.2 232.52Q335.51 229.52 335.51 223.78Q335.51 219.04 333.01 215.92Q330.52 212.8 326.46 210.43Q322.4 208.05 317.72 205.87Q313.04 203.69 308.8 200.94Q303.93 197.7 300.31 192.33Q296.7 186.96 296.7 178.48Q296.7 170.12 300.5 164.75Q304.31 159.38 310.61 156.7Q316.91 154.02 324.4 154.02Q330.39 154.02 334.63 155.26Q338.88 156.51 341.75 158.26Q344.62 160.01 346.24 161.38L339.63 172.74Q337.51 170.49 333.26 168.56Q329.02 166.62 323.78 166.62Q317.66 166.62 314.04 169.43Q310.42 172.24 310.42 177.73Q310.42 182.6 313.67 186.03Q316.91 189.46 321.97 192.27Q327.02 195.08 332.39 197.95Q337.75 200.82 341.87 204.69Q345.24 207.68 347.61 212.17Q349.99 216.67 349.99 222.28Q349.99 230.77 346.05 236.63Q342.12 242.5 335.51 245.43Q328.89 248.36 320.53 248.36Z"><title>S</title></path><rect x="267.596" y="108.21" width="36.018" height="12.762" style="stroke: rgb(0, 0, 0); stroke-width: 0px; fill: rgb(255, 255, 255); transform-box: fill-box; transform-origin: 50% 50%;" transform="matrix(0.87462, -0.484809, 0.484809, 0.87462, -34.017614, 2.312357)" rx="7" ry="7"><title>light</title></rect><rect x="267.596" y="108.21" width="36.018" height="12.762" style="stroke: rgb(0, 0, 0); stroke-width: 0; fill: rgb(255, 255, 255); transform-origin: 285.605px 114.591px;" transform="matrix(0.992546, 0.12187, -0.12187, 0.992546, -33.884452, 57.918179)" rx="7" ry="7"><title>light</title></rect><rect x="267.596" y="108.21" width="36.018" height="12.762" style="stroke: rgb(0, 0, 0); stroke-width: 0; fill: rgb(255, 255, 255); transform-origin: 285.605px 114.591px;" transform="matrix(0.874619, 0.48481, -0.48481, 0.874619, -42.228698, 105.528919)" rx="7" ry="7"><title>light</title></rect><rect x="137.528" y="295.112" width="16.593" height="15.334" style="stroke: rgb(0, 0, 0); stroke-width: 0px; fill: rgb(248, 254, 255);"/><path style="stroke: rgb(0, 0, 0); stroke-width: 0px; fill: rgb(88, 149, 200);" d="M 126.862 393.015 L 138.857 397.266 L 139.919 357.791 L 128.229 373.733 L 126.862 393.015 Z"/><path style="stroke: rgb(0, 0, 0); stroke-width: 0px; fill: rgb(255, 255, 255);" d="M 93.814 419.503 L 94.272 419.618 L 102.282 419.961 L 138.787 359.882 L 138.673 397.646 L 149.659 396.845 L 150.231 350.384 L 206.075 422.707 L 214.429 416.185 L 154.351 334.592 L 154.694 320.287 L 140.389 322.691 L 139.131 338.826 L 93.928 415.04 L 93.814 419.503 Z"><title>White tripod</title></path><path style="stroke: rgb(0, 0, 0); stroke-width: 0px; fill: rgb(95, 156, 204);" d="M 126.899 319.872 L 134.246 317.534 L 136.077 309.835 L 147.715 310.298 L 147.715 318.87 L 154.728 320.762 L 140.702 322.766 L 139.7 338.796 L 94.171 415.048 L 94.06 419.056 L 86.824 415.716 L 87.27 411.486 L 126.676 339.241 L 126.899 319.872 Z"/><path style="fill: none; stroke: rgb(0, 0, 0); stroke-width: 0px;" d="M 126.862 393.015 L 138.857 397.266 L 139.919 357.791 L 128.229 373.733 L 126.862 393.015 Z"/></svg>