<svg xmlns="http://www.w3.org/2000/svg" viewBox="0 0 1900 1000"><rect width="1900" height="1000" fill="#B22234"/><rect y="76.923" width="1900" height="76.923" fill="#fff"/><rect y="230.769" width="1900" height="76.923" fill="#fff"/><rect y="384.615" width="1900" height="76.923" fill="#fff"/><rect y="538.462" width="1900" height="76.923" fill="#fff"/><rect y="692.308" width="1900" height="76.923" fill="#fff"/><rect y="846.154" width="1900" height="76.923" fill="#fff"/><rect width="760" height="538.462" fill="#3C3B6E"/><g fill="#fff"><path d="M63.333,23.046 70.248,44.328 92.626,44.328 74.522,57.482 81.437,78.764 63.333,65.611 45.230,78.764 52.145,57.482 34.041,44.328 56.418,44.328Z"/><path d="M190.000,23.046 196.915,44.328 219.293,44.328 201.189,57.482 208.104,78.764 190.000,65.611 171.896,78.764 178.811,57.482 160.707,44.328 183.085,44.328Z"/><path d="M316.667,23.046 323.582,44.328 345.959,44.328 327.855,57.482 334.770,78.764 316.667,65.611 298.563,78.764 305.478,57.482 287.374,44.328 309.752,44.328Z"/><path d="M443.333,23.046 450.248,44.328 472.626,44.328 454.522,57.482 461.437,78.764 443.333,65.611 425.230,78.764 432.145,57.482 414.041,44.328 436.418,44.328Z"/><path d="M570.000,23.046 576.915,44.328 599.293,44.328 581.189,57.482 588.104,78.764 570.000,65.611 551.896,78.764 558.811,57.482 540.707,44.328 563.085,44.328Z"/><path d="M696.667,23.046 703.582,44.328 725.959,44.328 707.855,57.482 714.770,78.764 696.667,65.611 678.563,78.764 685.478,57.482 667.374,44.328 689.752,44.328Z"/><path d="M126.667,76.892 133.582,98.175 155.959,98.175 137.855,111.328 144.770,132.610 126.667,119.457 108.563,132.610 115.478,111.328 97.374,98.175 119.752,98.175Z"/><path d="M253.333,76.892 260.248,98.175 282.626,98.175 264.522,111.328 271.437,132.610 253.333,119.457 235.230,132.610 242.145,111.328 224.041,98.175 246.418,98.175Z"/><path d="M380.000,76.892 386.915,98.175 409.293,98.175 391.189,111.328 398.104,132.610 380.000,119.457 361.896,132.610 368.811,111.328 350.707,98.175 373.085,98.175Z"/><path d="M506.667,76.892 513.582,98.175 535.959,98.175 517.855,111.328 524.770,132.610 506.667,119.457 488.563,132.610 495.478,111.328 477.374,98.175 499.752,98.175Z"/><path d="M633.333,76.892 640.248,98.175 662.626,98.175 644.522,111.328 651.437,132.610 633.333,119.457 615.230,132.610 622.145,111.328 604.041,98.175 626.418,98.175Z"/><path d="M63.333,130.738 70.248,152.021 92.626,152.021 74.522,165.174 81.437,186.456 63.333,173.303 45.230,186.456 52.145,165.174 34.041,152.021 56.418,152.021Z"/><path d="M190.000,130.738 196.915,152.021 219.293,152.021 201.189,165.174 208.104,186.456 190.000,173.303 171.896,186.456 178.811,165.174 160.707,152.021 183.085,152.021Z"/><path d="M316.667,130.738 323.582,152.021 345.959,152.021 327.855,165.174 334.770,186.456 316.667,173.303 298.563,186.456 305.478,165.174 287.374,152.021 309.752,152.021Z"/><path d="M443.333,130.738 450.248,152.021 472.626,152.021 454.522,165.174 461.437,186.456 443.333,173.303 425.230,186.456 432.145,165.174 414.041,152.021 436.418,152.021Z"/><path d="M570.000,130.738 576.915,152.021 599.293,152.021 581.189,165.174 588.104,186.456 570.000,173.303 551.896,186.456 558.811,165.174 540.707,152.021 563.085,152.021Z"/><path d="M696.667,130.738 703.582,152.021 725.959,152.021 707.855,165.174 714.770,186.456 696.667,173.303 678.563,186.456 685.478,165.174 667.374,152.021 689.752,152.021Z"/><path d="M126.667,184.585 133.582,205.867 155.959,205.867 137.855,219.020 144.770,240.302 126.667,227.149 108.563,240.302 115.478,219.020 97.374,205.867 119.752,205.867Z"/><path d="M253.333,184.585 260.248,205.867 282.626,205.867 264.522,219.020 271.437,240.302 253.333,227.149 235.230,240.302 242.145,219.020 224.041,205.867 246.418,205.867Z"/><path d="M380.000,184.585 386.915,205.867 409.293,205.867 391.189,219.020 398.104,240.302 380.000,227.149 361.896,240.302 368.811,219.020 350.707,205.867 373.085,205.867Z"/><path d="M506.667,184.585 513.582,205.867 535.959,205.867 517.855,219.020 524.770,240.302 506.667,227.149 488.563,240.302 495.478,219.020 477.374,205.867 499.752,205.867Z"/><path d="M633.333,184.585 640.248,205.867 662.626,205.867 644.522,219.020 651.437,240.302 633.333,227.149 615.230,240.302 622.145,219.020 604.041,205.867 626.418,205.867Z"/><path d="M63.333,238.431 70.248,259.713 92.626,259.713 74.522,272.866 81.437,294.148 63.333,280.995 45.230,294.148 52.145,272.866 34.041,259.713 56.418,259.713Z"/><path d="M190.000,238.431 196.915,259.713 219.293,259.713 201.189,272.866 208.104,294.148 190.000,280.995 171.896,294.148 178.811,272.866 160.707,259.713 183.085,259.713Z"/><path d="M316.667,238.431 323.582,259.713 345.959,259.713 327.855,272.866 334.770,294.148 316.667,280.995 298.563,294.148 305.478,272.866 287.374,259.713 309.752,259.713Z"/><path d="M443.333,238.431 450.248,259.713 472.626,259.713 454.522,272.866 461.437,294.148 443.333,280.995 425.230,294.148 432.145,272.866 414.041,259.713 436.418,259.713Z"/><path d="M570.000,238.431 576.915,259.713 599.293,259.713 581.189,272.866 588.104,294.148 570.000,280.995 551.896,294.148 558.811,272.866 540.707,259.713 563.085,259.713Z"/><path d="M696.667,238.431 703.582,259.713 725.959,259.713 707.855,272.866 714.770,294.148 696.667,280.995 678.563,294.148 685.478,272.866 667.374,259.713 689.752,259.713Z"/><path d="M126.667,292.277 133.582,313.559 155.959,313.559 137.855,326.712 144.770,347.995 126.667,334.841 108.563,347.995 115.478,326.712 97.374,313.559 119.752,313.559Z"/><path d="M253.333,292.277 260.248,313.559 282.626,313.559 264.522,326.712 271.437,347.995 253.333,334.841 235.230,347.995 242.145,326.712 224.041,313.559 246.418,313.559Z"/><path d="M380.000,292.277 386.915,313.559 409.293,313.559 391.189,326.712 398.104,347.995 380.000,334.841 361.896,347.995 368.811,326.712 350.707,313.559 373.085,313.559Z"/><path d="M506.667,292.277 513.582,313.559 535.959,313.559 517.855,326.712 524.770,347.995 506.667,334.841 488.563,347.995 495.478,326.712 477.374,313.559 499.752,313.559Z"/><path d="M633.333,292.277 640.248,313.559 662.626,313.559 644.522,326.712 651.437,347.995 633.333,334.841 615.230,347.995 622.145,326.712 604.041,313.559 626.418,313.559Z"/><path d="M63.333,346.123 70.248,367.405 92.626,367.405 74.522,380.559 81.437,401.841 63.333,388.688 45.230,401.841 52.145,380.559 34.041,367.405 56.418,367.405Z"/><path d="M190.000,346.123 196.915,367.405 219.293,367.405 201.189,380.559 208.104,401.841 190.000,388.688 171.896,401.841 178.811,380.559 160.707,367.405 183.085,367.405Z"/><path d="M316.667,346.123 323.582,367.405 345.959,367.405 327.855,380.559 334.770,401.841 316.667,388.688 298.563,401.841 305.478,380.559 287.374,367.405 309.752,367.405Z"/><path d="M443.333,346.123 450.248,367.405 472.626,367.405 454.522,380.559 461.437,401.841 443.333,388.688 425.230,401.841 432.145,380.559 414.041,367.405 436.418,367.405Z"/><path d="M570.000,346.123 576.915,367.405 599.293,367.405 581.189,380.559 588.104,401.841 570.000,388.688 551.896,401.841 558.811,380.559 540.707,367.405 563.085,367.405Z"/><path d="M696.667,346.123 703.582,367.405 725.959,367.405 707.855,380.559 714.770,401.841 696.667,388.688 678.563,401.841 685.478,380.559 667.374,367.405 689.752,367.405Z"/><path d="M126.667,399.969 133.582,421.252 155.959,421.252 137.855,434.405 144.770,455.687 126.667,442.534 108.563,455.687 115.478,434.405 97.374,421.252 119.752,421.252Z"/><path d="M253.333,399.969 260.248,421.252 282.626,421.252 264.522,434.405 271.437,455.687 253.333,442.534 235.230,455.687 242.145,434.405 224.041,421.252 246.418,421.252Z"/><path d="M380.000,399.969 386.915,421.252 409.293,421.252 391.189,434.405 398.104,455.687 380.000,442.534 361.896,455.687 368.811,434.405 350.707,421.252 373.085,421.252Z"/><path d="M506.667,399.969 513.582,421.252 535.959,421.252 517.855,434.405 524.770,455.687 506.667,442.534 488.563,455.687 495.478,434.405 477.374,421.252 499.752,421.252Z"/><path d="M633.333,399.969 640.248,421.252 662.626,421.252 644.522,434.405 651.437,455.687 633.333,442.534 615.230,455.687 622.145,434.405 604.041,421.252 626.418,421.252Z"/><path d="M63.333,453.815 70.248,475.098 92.626,475.098 74.522,488.251 81.437,509.533 63.333,496.380 45.230,509.533 52.145,488.251 34.041,475.098 56.418,475.098Z"/><path d="M190.000,453.815 196.915,475.098 219.293,475.098 201.189,488.251 208.104,509.533 190.000,496.380 171.896,509.533 178.811,488.251 160.707,475.098 183.085,475.098Z"/><path d="M316.667,453.815 323.582,475.098 345.959,475.098 327.855,488.251 334.770,509.533 316.667,496.380 298.563,509.533 305.478,488.251 287.374,475.098 309.752,475.098Z"/><path d="M443.333,453.815 450.248,475.098 472.626,475.098 454.522,488.251 461.437,509.533 443.333,496.380 425.230,509.533 432.145,488.251 414.041,475.098 436.418,475.098Z"/><path d="M570.000,453.815 576.915,475.098 599.293,475.098 581.189,488.251 588.104,509.533 570.000,496.380 551.896,509.533 558.811,488.251 540.707,475.098 563.085,475.098Z"/><path d="M696.667,453.815 703.582,475.098 725.959,475.098 707.855,488.251 714.770,509.533 696.667,496.380 678.563,509.533 685.478,488.251 667.374,475.098 689.752,475.098Z"/></g></svg>